<svg version="1.1" id="Layer_1" xmlns="http://www.w3.org/2000/svg" xmlns:xlink="http://www.w3.org/1999/xlink" x="0px" y="0px"
	 width="100%" viewBox="0 0 4292 4088" enable-background="new 0 0 4292 4088" xml:space="preserve">
<path fill="#F6A323" opacity="1.000000" stroke="none" 
	d="
M2016.000000,4.000012 
	C2037.419800,4.000000 2058.839600,4.000000 2083.466797,4.986372 
	C2105.822998,9.111395 2125.056885,9.324562 2146.141846,7.772799 
	C2204.507568,10.775021 2260.869141,15.807371 2317.056641,23.085642 
	C2393.787354,33.024914 2469.682617,47.311359 2544.709229,66.095589 
	C2782.454102,125.619255 3002.317139,224.911026 3204.285645,363.716064 
	C3363.505615,473.141724 3504.265381,602.752258 3626.906006,751.990845 
	C3731.048340,878.719055 3818.682129,1016.009216 3889.734619,1163.900024 
	C3948.781738,1286.802734 3995.066406,1414.287476 4028.421387,1546.486450 
	C4053.728516,1646.790039 4071.154297,1748.411987 4081.221436,1851.391602 
	C4086.281250,1903.151978 4088.772949,1955.028564 4090.459961,2006.923462 
	C4091.605713,2042.167725 4089.771484,2077.510498 4089.208252,2112.808350 
	C4088.091309,2182.840088 4081.737549,2252.441162 4072.580811,2321.850586 
	C4065.343994,2376.705078 4055.835938,2431.134277 4044.111328,2485.188232 
	C4043.329590,2488.792480 4041.538330,2492.177490 4040.441895,2495.070557 
	C4038.256592,2495.194824 4037.527588,2495.449951 4036.987793,2495.233643 
	C4032.057861,2493.259766 4027.118408,2491.299805 4022.260010,2489.157959 
	C3947.849609,2456.357910 3870.118164,2435.840332 3789.157227,2429.102539 
	C3717.127197,2423.107910 3645.347900,2426.460205 3574.344971,2441.285156 
	C3351.793213,2487.752197 3161.597656,2633.982178 3060.117676,2837.499756 
	C3000.872314,2956.316162 2975.212402,3082.143555 2983.147461,3214.827881 
	C2985.301025,3250.839844 2989.709717,3286.521729 2997.322266,3321.695557 
	C3030.271973,3473.935303 3103.127686,3603.860352 3216.357422,3711.015381 
	C3219.112061,3713.621826 3221.352539,3716.771484 3224.165527,3720.056396 
	C3217.526367,3727.617188 3209.855225,3731.699951 3202.835938,3736.524902 
	C3089.339111,3814.543457 2969.176270,3880.407227 2842.285400,3933.968262 
	C2637.975098,4020.207520 2425.113770,4071.072266 2202.231934,4087.830078 
	C2177.583008,4089.019531 2154.791504,4090.509766 2132.000000,4092.000000 
	C2078.583008,4092.000000 2025.166138,4092.000000 1968.266479,4091.784668 
	C1941.826294,4090.423096 1918.868896,4089.276855 1894.182495,4087.950928 
	C1837.989380,4083.396973 1783.774780,4077.060547 1729.766479,4068.647705 
	C1618.921021,4051.381592 1510.362549,4024.822510 1403.984253,3989.373291 
	C1306.489502,3956.884521 1212.038452,3917.117920 1120.595459,3870.141113 
	C1049.966309,3833.856934 981.576843,3793.809814 915.680786,3749.559082 
	C783.431763,3660.750000 663.012085,3558.049316 554.668457,3441.206787 
	C408.497650,3283.569824 289.817871,3107.468506 199.039581,2912.576172 
	C129.225143,2762.691162 78.441139,2606.635742 46.912464,2444.311035 
	C36.747261,2391.975830 28.541679,2339.361572 22.565636,2286.370605 
	C16.365503,2231.392578 11.457526,2176.350586 11.069232,2119.104980 
	C11.329630,2104.961914 11.267618,2092.706543 11.263312,2080.450928 
	C11.261347,2074.857178 9.538481,2070.332275 4.000000,2068.000000 
	C4.000000,2055.877686 4.000000,2043.755249 5.495485,2029.379639 
	C8.387487,2023.599365 10.886946,2020.101318 10.981329,2016.539795 
	C11.313370,2004.010498 10.819166,1991.459351 10.710734,1977.112061 
	C11.638969,1919.315430 16.780977,1863.650635 23.105427,1808.050659 
	C32.979156,1721.247925 48.746338,1635.518066 69.983269,1550.824463 
	C110.499504,1389.244507 169.837982,1234.854004 248.313248,1087.872803 
	C352.735321,892.294128 485.459595,718.201904 646.133179,565.514526 
	C736.168762,479.954193 833.352844,403.344360 937.459656,335.496063 
	C1080.481079,242.286392 1232.730713,168.165100 1394.362549,113.273819 
	C1575.220337,51.853283 1761.162720,17.315588 1953.692871,8.106464 
	C1971.997559,8.114543 1988.455933,8.003750 2004.892700,7.348515 
	C2008.633667,7.199389 2012.299561,5.166093 2016.000000,4.000012 
M2898.000488,1057.192017 
	C2262.730713,1057.417603 1627.461182,1057.642090 992.191650,1057.953003 
	C991.059387,1057.953613 989.927856,1059.232666 988.605957,1060.029053 
	C985.479370,1067.581299 986.869263,1075.675781 986.865601,1083.571045 
	C986.780334,1266.889893 986.799316,1450.208740 986.802002,1633.527588 
	C986.802124,1638.193848 986.629822,1642.872803 986.919189,1647.522217 
	C987.153870,1651.293945 987.962219,1655.029785 988.620605,1659.489258 
	C995.022400,1659.793091 1000.244202,1660.336426 1005.454529,1660.242676 
	C1058.736694,1659.284180 1112.014282,1658.034302 1165.298828,1657.242798 
	C1216.605835,1656.480591 1267.920776,1656.251831 1319.230225,1655.625610 
	C1379.853394,1654.885498 1440.474609,1653.978638 1501.096436,1653.128174 
	C1535.075562,1652.651489 1569.053833,1652.119141 1603.033203,1651.657349 
	C1626.355103,1651.340332 1649.677612,1650.996094 1673.000732,1650.920532 
	C1677.387817,1650.906372 1681.778687,1652.103638 1687.212280,1652.893799 
	C1687.378174,1662.599854 1687.652344,1671.159790 1687.652710,1679.719727 
	C1687.672852,2231.009521 1687.670654,2782.299561 1687.671753,3333.589355 
	C1687.671753,3340.255371 1687.518677,3346.927734 1687.761230,3353.585205 
	C1687.899170,3357.373779 1688.695679,3361.138184 1689.248779,3365.315186 
	C1692.871338,3365.888184 1695.426636,3366.646240 1697.981812,3366.646484 
	C1933.294312,3366.655273 2168.606934,3366.610840 2403.919434,3366.479736 
	C2405.756104,3366.478760 2407.592285,3365.250977 2410.224365,3364.312012 
	C2412.702148,3356.084229 2411.631836,3347.430420 2411.632812,3338.941406 
	C2411.684326,2787.651611 2411.678711,2236.361816 2411.680176,1685.072021 
	C2411.680176,1677.739258 2411.458984,1670.394653 2411.816406,1663.078735 
	C2412.000488,1659.312866 2413.233643,1655.598145 2414.039551,1651.630249 
	C2429.600342,1651.630249 2444.219482,1651.460938 2458.833496,1651.657715 
	C2554.100098,1652.940063 2649.365723,1654.281738 2744.631348,1655.644653 
	C2815.912109,1656.664429 2887.191162,1657.809692 2958.472656,1658.775879 
	C3004.449707,1659.399048 3050.429688,1659.852539 3096.409424,1660.223877 
	C3101.501709,1660.265137 3106.602295,1659.267944 3112.831055,1658.637817 
	C3112.965332,1648.817261 3113.184082,1640.240356 3113.185059,1631.663452 
	C3113.204834,1449.677856 3113.200684,1267.692139 3113.197998,1085.706543 
	C3113.197998,1080.373779 3113.416748,1075.024048 3113.061279,1069.713867 
	C3112.812012,1065.987793 3111.759521,1062.315552 3111.218506,1059.433960 
	C3108.421631,1058.453125 3107.194336,1057.648560 3105.964600,1057.645020 
	C3037.976807,1057.451782 2969.988525,1057.325439 2898.000488,1057.192017 
z"/>
<path fill="#FFFFFF" opacity="1.000000" stroke="none" 
	d="
M2204.089111,4088.130615 
	C2425.113770,4071.072266 2637.975098,4020.207520 2842.285400,3933.968262 
	C2969.176270,3880.407227 3089.339111,3814.543457 3202.835938,3736.524902 
	C3209.855225,3731.699951 3217.526367,3727.617188 3224.165527,3720.056396 
	C3221.352539,3716.771484 3219.112061,3713.621826 3216.357422,3711.015381 
	C3103.127686,3603.860352 3030.271973,3473.935303 2997.322266,3321.695557 
	C2989.709717,3286.521729 2985.301025,3250.839844 2983.147461,3214.827881 
	C2975.212402,3082.143555 3000.872314,2956.316162 3060.117676,2837.499756 
	C3161.597656,2633.982178 3351.793213,2487.752197 3574.344971,2441.285156 
	C3645.347900,2426.460205 3717.127197,2423.107910 3789.157227,2429.102539 
	C3870.118164,2435.840332 3947.849609,2456.357910 4022.260010,2489.157959 
	C4027.118408,2491.299805 4032.057861,2493.259766 4036.987793,2495.233643 
	C4037.527588,2495.449951 4038.256592,2495.194824 4040.441895,2495.070557 
	C4041.538330,2492.177490 4043.329590,2488.792480 4044.111328,2485.188232 
	C4055.835938,2431.134277 4065.343994,2376.705078 4072.580811,2321.850586 
	C4081.737549,2252.441162 4088.091309,2182.840088 4089.208252,2112.808350 
	C4089.771484,2077.510498 4091.605713,2042.167725 4090.459961,2006.923462 
	C4088.772949,1955.028564 4086.281250,1903.151978 4081.221436,1851.391602 
	C4071.154297,1748.411987 4053.728516,1646.790039 4028.421387,1546.486450 
	C3995.066406,1414.287476 3948.781738,1286.802734 3889.734619,1163.900024 
	C3818.682129,1016.009216 3731.048340,878.719055 3626.906006,751.990845 
	C3504.265381,602.752258 3363.505615,473.141724 3204.285645,363.716064 
	C3002.317139,224.911026 2782.454102,125.619255 2544.709229,66.095589 
	C2469.682617,47.311359 2393.787354,33.024914 2317.056641,23.085642 
	C2260.869141,15.807371 2204.507568,10.775021 2145.960938,6.870942 
	C2143.983643,5.839598 2144.000000,4.000000 2144.000000,4.000000 
	C2861.093994,4.000000 3578.187744,4.000000 4296.000000,4.000000 
	C4296.000000,1033.416748 4296.000000,2062.833740 4295.164551,3092.762207 
	C4292.908691,3082.760986 4292.003906,3072.149170 4289.991211,3061.751465 
	C4264.785156,2931.537354 4202.499512,2822.123047 4102.908203,2734.817383 
	C4003.231689,2647.437500 3886.262451,2600.430908 3753.928223,2593.205811 
	C3650.577637,2587.563232 3552.410645,2608.460693 3460.375977,2656.141602 
	C3347.833252,2714.447021 3263.037109,2800.654541 3206.964355,2914.143799 
	C3152.176758,3025.031250 3135.562256,3142.206055 3155.505127,3264.280518 
	C3175.010010,3383.671631 3227.344238,3487.017578 3311.971924,3573.135986 
	C3420.125244,3683.194580 3552.500977,3740.234863 3706.439941,3746.609131 
	C3759.269287,3748.796387 3811.592529,3742.712891 3862.947998,3729.825195 
	C4045.460449,3684.023682 4193.167969,3553.810059 4261.085938,3378.592529 
	C4276.771973,3338.125488 4289.443848,3296.770996 4292.614258,3253.071045 
	C4292.837891,3249.981934 4294.830078,3247.020752 4296.000000,3244.000000 
	C4296.000000,3526.498291 4296.000000,3808.996826 4296.000000,4092.000000 
	C3599.916504,4092.000000 2903.832764,4092.000000 2205.785645,4091.030273 
	C2203.822266,4090.060303 2204.089111,4088.130615 2204.089111,4088.130615 
z"/>
<path fill="#41ACBD" opacity="1.000000" stroke="none" 
	d="
M4296.000000,3242.125488 
	C4294.830078,3247.020752 4292.837891,3249.981934 4292.614258,3253.071045 
	C4289.443848,3296.770996 4276.771973,3338.125488 4261.085938,3378.592529 
	C4193.167969,3553.810059 4045.460449,3684.023682 3862.947998,3729.825195 
	C3811.592529,3742.712891 3759.269287,3748.796387 3706.439941,3746.609131 
	C3552.500977,3740.234863 3420.125244,3683.194580 3311.971924,3573.135986 
	C3227.344238,3487.017578 3175.010010,3383.671631 3155.505127,3264.280518 
	C3135.562256,3142.206055 3152.176758,3025.031250 3206.964355,2914.143799 
	C3263.037109,2800.654541 3347.833252,2714.447021 3460.375977,2656.141602 
	C3552.410645,2608.460693 3650.577637,2587.563232 3753.928223,2593.205811 
	C3886.262451,2600.430908 4003.231689,2647.437500 4102.908203,2734.817383 
	C4202.499512,2822.123047 4264.785156,2931.537354 4289.991211,3061.751465 
	C4292.003906,3072.149170 4292.908691,3082.760986 4295.164551,3094.636719 
	C4296.000000,3144.083496 4296.000000,3192.167236 4296.000000,3242.125488 
z"/>
<path fill="#FFFFFF" opacity="1.000000" stroke="none" 
	d="
M1951.838867,7.790217 
	C1761.162720,17.315588 1575.220337,51.853283 1394.362549,113.273819 
	C1232.730713,168.165100 1080.481079,242.286392 937.459656,335.496063 
	C833.352844,403.344360 736.168762,479.954193 646.133179,565.514526 
	C485.459595,718.201904 352.735321,892.294128 248.313248,1087.872803 
	C169.837982,1234.854004 110.499504,1389.244507 69.983269,1550.824463 
	C48.746338,1635.518066 32.979156,1721.247925 23.105427,1808.050659 
	C16.780977,1863.650635 11.638969,1919.315430 9.594110,1977.255615 
	C6.936822,1979.468994 5.468406,1979.734497 3.999995,1980.000000 
	C4.000000,1321.627075 4.000000,663.254150 4.000000,4.000000 
	C652.083313,4.000000 1300.166992,4.000000 1950.165405,4.950970 
	C1952.080078,5.901940 1951.838867,7.790217 1951.838867,7.790217 
z"/>
<path fill="#FFFFFF" opacity="1.000000" stroke="none" 
	d="
M10.770405,2120.992676 
	C11.457526,2176.350586 16.365503,2231.392578 22.565636,2286.370605 
	C28.541679,2339.361572 36.747261,2391.975830 46.912464,2444.311035 
	C78.441139,2606.635742 129.225143,2762.691162 199.039581,2912.576172 
	C289.817871,3107.468506 408.497650,3283.569824 554.668457,3441.206787 
	C663.012085,3558.049316 783.431763,3660.750000 915.680786,3749.559082 
	C981.576843,3793.809814 1049.966309,3833.856934 1120.595459,3870.141113 
	C1212.038452,3917.117920 1306.489502,3956.884521 1403.984253,3989.373291 
	C1510.362549,4024.822510 1618.921021,4051.381592 1729.766479,4068.647705 
	C1783.774780,4077.060547 1837.989380,4083.396973 1894.315918,4088.915527 
	C1896.178223,4090.060303 1896.000000,4092.000000 1896.000000,4092.000000 
	C1265.618896,4092.000000 635.237915,4092.000000 4.000000,4092.000000 
	C4.000000,3435.916748 4.000000,2779.833008 5.150097,2121.829590 
	C7.790269,2120.270996 9.280345,2120.631836 10.770405,2120.992676 
z"/>
<path fill="#FACD87" opacity="1.000000" stroke="none" 
	d="
M11.069248,2119.104980 
	C9.280345,2120.631836 7.790269,2120.270996 5.150097,2119.955078 
	C4.000000,2103.901855 4.000000,2087.803711 4.000000,2069.852783 
	C9.538481,2070.332275 11.261347,2074.857178 11.263312,2080.450928 
	C11.267618,2092.706543 11.329630,2104.961914 11.069248,2119.104980 
z"/>
<path fill="#FACD89" opacity="1.000000" stroke="none" 
	d="
M3.999995,1981.842529 
	C5.468406,1979.734497 6.936822,1979.468994 9.521864,1979.060059 
	C10.819166,1991.459351 11.313370,2004.010498 10.981329,2016.539795 
	C10.886946,2020.101318 8.387487,2023.599365 5.495485,2027.563232 
	C4.000000,2013.228394 4.000000,1998.456665 3.999995,1981.842529 
z"/>
<path fill="#FBD9A5" opacity="1.000000" stroke="none" 
	d="
M1897.871826,4092.000000 
	C1896.000000,4092.000000 1896.178223,4090.060303 1896.044922,4089.095703 
	C1918.868896,4089.276855 1941.826294,4090.423096 1966.391846,4091.784668 
	C1945.247803,4092.000000 1922.495728,4092.000000 1897.871826,4092.000000 
z"/>
<path fill="#FBD9A5" opacity="1.000000" stroke="none" 
	d="
M2202.231934,4087.830078 
	C2204.089111,4088.130615 2203.822266,4090.060303 2203.911133,4091.030273 
	C2181.247803,4092.000000 2158.495850,4092.000000 2133.871826,4092.000000 
	C2154.791504,4090.509766 2177.583008,4089.019531 2202.231934,4087.830078 
z"/>
<path fill="#FBD59B" opacity="1.000000" stroke="none" 
	d="
M1953.692871,8.106464 
	C1951.838867,7.790217 1952.080078,5.901940 1952.040039,4.950970 
	C1972.088379,4.000000 1992.176758,4.000000 2014.132568,4.000012 
	C2012.299561,5.166093 2008.633667,7.199389 2004.892700,7.348515 
	C1988.455933,8.003750 1971.997559,8.114543 1953.692871,8.106464 
z"/>
<path fill="#FACA82" opacity="1.000000" stroke="none" 
	d="
M2142.135498,4.000000 
	C2144.000000,4.000000 2143.983643,5.839598 2144.164551,6.741456 
	C2125.056885,9.324562 2105.822998,9.111395 2085.336914,4.986372 
	C2102.757080,4.000000 2121.513916,4.000000 2142.135498,4.000000 
z"/>
<path fill="#FFFFFE" opacity="1.000000" stroke="none" 
	d="
M2900.000488,1057.192261 
	C2969.988525,1057.325439 3037.976807,1057.451782 3105.964600,1057.645020 
	C3107.194336,1057.648560 3108.421631,1058.453125 3111.218506,1059.433960 
	C3111.759521,1062.315552 3112.812012,1065.987793 3113.061279,1069.713867 
	C3113.416748,1075.024048 3113.197998,1080.373779 3113.197998,1085.706543 
	C3113.200684,1267.692139 3113.204834,1449.677856 3113.185059,1631.663452 
	C3113.184082,1640.240356 3112.965332,1648.817261 3112.831055,1658.637817 
	C3106.602295,1659.267944 3101.501709,1660.265137 3096.409424,1660.223877 
	C3050.429688,1659.852539 3004.449707,1659.399048 2958.472656,1658.775879 
	C2887.191162,1657.809692 2815.912109,1656.664429 2744.631348,1655.644653 
	C2649.365723,1654.281738 2554.100098,1652.940063 2458.833496,1651.657715 
	C2444.219482,1651.460938 2429.600342,1651.630249 2414.039551,1651.630249 
	C2413.233643,1655.598145 2412.000488,1659.312866 2411.816406,1663.078735 
	C2411.458984,1670.394653 2411.680176,1677.739258 2411.680176,1685.072021 
	C2411.678711,2236.361816 2411.684326,2787.651611 2411.632812,3338.941406 
	C2411.631836,3347.430420 2412.702148,3356.084229 2410.224365,3364.312012 
	C2407.592285,3365.250977 2405.756104,3366.478760 2403.919434,3366.479736 
	C2168.606934,3366.610840 1933.294312,3366.655273 1697.981812,3366.646484 
	C1695.426636,3366.646240 1692.871338,3365.888184 1689.248779,3365.315186 
	C1688.695679,3361.138184 1687.899170,3357.373779 1687.761230,3353.585205 
	C1687.518677,3346.927734 1687.671753,3340.255371 1687.671753,3333.589355 
	C1687.670654,2782.299561 1687.672852,2231.009521 1687.652710,1679.719727 
	C1687.652344,1671.159790 1687.378174,1662.599854 1687.212280,1652.893799 
	C1681.778687,1652.103638 1677.387817,1650.906372 1673.000732,1650.920532 
	C1649.677612,1650.996094 1626.355103,1651.340332 1603.033203,1651.657349 
	C1569.053833,1652.119141 1535.075562,1652.651489 1501.096436,1653.128174 
	C1440.474609,1653.978638 1379.853394,1654.885498 1319.230225,1655.625610 
	C1267.920776,1656.251831 1216.605835,1656.480591 1165.298828,1657.242798 
	C1112.014282,1658.034302 1058.736694,1659.284180 1005.454529,1660.242676 
	C1000.244202,1660.336426 995.022400,1659.793091 988.620605,1659.489258 
	C987.962219,1655.029785 987.153870,1651.293945 986.919189,1647.522217 
	C986.629822,1642.872803 986.802124,1638.193848 986.802002,1633.527588 
	C986.799316,1450.208740 986.780334,1266.889893 986.865601,1083.571045 
	C986.869263,1075.675781 985.479370,1067.581299 988.605957,1060.029053 
	C989.927856,1059.232666 991.059387,1057.953613 992.191650,1057.953003 
	C1627.461182,1057.642090 2262.730713,1057.417603 2900.000488,1057.192261 
z"/>
</svg>